<?xml version="1.0" encoding="utf-8" standalone="yes"?>
<!DOCTYPE svg PUBLIC "-//W3C//DTD SVG 1.1//EN" "http://www.w3.org/Graphics/SVG/1.1/DTD/svg11.dtd">
<svg xmlns:xlink="http://www.w3.org/1999/xlink" class="barcode-canvas" version="1.1" style="shape-rendering:crispEdges;" xmlns="http://www.w3.org/2000/svg">
  <g text-rendering="geometricPrecision">
    <rect x="0" y="0" width="171" height="160" fill="#ffffff" />
    <rect x="7" y="7" width="4" height="121" fill="#000000" />
    <rect x="13" y="7" width="2" height="121" fill="#000000" />
    <rect x="19" y="7" width="6" height="121" fill="#000000" />
    <rect x="29" y="7" width="2" height="121" fill="#000000" />
    <rect x="33" y="7" width="4" height="121" fill="#000000" />
    <rect x="41" y="7" width="6" height="121" fill="#000000" />
    <rect x="51" y="7" width="2" height="121" fill="#000000" />
    <rect x="59" y="7" width="2" height="121" fill="#000000" />
    <rect x="63" y="7" width="4" height="121" fill="#000000" />
    <rect x="73" y="7" width="6" height="121" fill="#000000" />
    <rect x="85" y="7" width="2" height="121" fill="#000000" />
    <rect x="89" y="7" width="4" height="121" fill="#000000" />
    <rect x="95" y="7" width="4" height="121" fill="#000000" />
    <rect x="107" y="7" width="2" height="121" fill="#000000" />
    <rect x="111" y="7" width="2" height="121" fill="#000000" />
    <rect x="117" y="7" width="2" height="121" fill="#000000" />
    <rect x="125" y="7" width="6" height="121" fill="#000000" />
    <rect x="133" y="7" width="4" height="121" fill="#000000" />
    <rect x="139" y="7" width="4" height="121" fill="#000000" />
    <rect x="149" y="7" width="6" height="121" fill="#000000" />
    <rect x="157" y="7" width="2" height="121" fill="#000000" />
    <rect x="161" y="7" width="4" height="121" fill="#000000" />
    <g transform="translate(41, 131)">
      <path d="M 9.703125 16.294921875 L 8.12109375 16.294921875 L 8.12109375 6.2138671875 C 7.7402338981628418 6.5771484375 7.2407221794128418 6.9404296875 6.62255859375 7.3037109375 C 6.0043940544128418 7.6669921875 5.44921875 7.939453125 4.95703125 8.12109375 L 4.95703125 6.591796875 C 5.8417963981628418 6.17578125 6.6152338981628418 5.671875 7.27734375 5.080078125 C 7.9394526481628418 4.48828125 8.4082021713256836 3.9140625 8.68359375 3.357421875 L 9.703125 3.357421875 Z M 22.3681640625 14.7744140625 L 22.3681640625 16.294921875 L 13.8515625 16.294921875 C 13.839842796325684 15.9140625 13.901366233825684 15.5478515625 14.0361328125 15.1962890625 C 14.252928733825684 14.6162109375 14.600096702575684 14.044921875 15.07763671875 13.482421875 C 15.555174827575684 12.919921875 16.245115280151367 12.26953125 17.1474609375 11.53125 C 18.547849655151367 10.3828125 19.494140625 9.47314453125 19.986328125 8.80224609375 C 20.478515625 8.13134765625 20.724609375 7.4970703125 20.724609375 6.8994140625 C 20.724609375 6.2724609375 20.50048828125 5.74365234375 20.05224609375 5.31298828125 C 19.60400390625 4.88232421875 19.01953125 4.6669921875 18.298828125 4.6669921875 C 17.537107467651367 4.6669921875 16.927732467651367 4.8955078125 16.470703125 5.3525390625 C 16.013671875 5.8095703125 15.782225608825684 6.4423828125 15.7763671875 7.2509765625 L 14.150390625 7.083984375 C 14.261717796325684 5.87109375 14.6806640625 4.94677734375 15.4072265625 4.31103515625 C 16.133787155151367 3.67529296875 17.109373092651367 3.357421875 18.333984375 3.357421875 C 19.570310592651367 3.357421875 20.548826217651367 3.7001953125 21.26953125 4.3857421875 C 21.990232467651367 5.0712890625 22.3505859375 5.9208984375 22.3505859375 6.9345703125 C 22.3505859375 7.4501953125 22.245115280151367 7.95703125 22.0341796875 8.455078125 C 21.823240280151367 8.953125 21.473142623901367 9.4775390625 20.98388671875 10.0283203125 C 20.494626998901367 10.5791015625 19.681638717651367 11.3349609375 18.544921875 12.2958984375 C 17.595703125 13.0927734375 16.986326217651367 13.63330078125 16.716796875 13.91748046875 C 16.447263717651367 14.20166015625 16.224609375 14.4873046875 16.048828125 14.7744140625 Z M 24.3720703125 12.8935546875 L 25.9541015625 12.6826171875 C 26.135740280151367 13.5791015625 26.444822311401367 14.22509765625 26.88134765625 14.62060546875 C 27.317869186401367 15.01611328125 27.849607467651367 15.2138671875 28.4765625 15.2138671875 C 29.220701217651367 15.2138671875 29.849119186401367 14.9560546875 30.36181640625 14.4404296875 C 30.874509811401367 13.9248046875 31.130857467651367 13.2861328125 31.130859375 12.5244140625 C 31.130857467651367 11.7978515625 30.893552780151367 11.19873046875 30.4189453125 10.72705078125 C 29.9443359375 10.25537109375 29.340818405151367 10.01953125 28.6083984375 10.01953125 C 28.3095703125 10.01953125 27.937498092651367 10.078125 27.4921875 10.1953125 L 27.66796875 8.806640625 C 27.7734375 8.818359375 27.858396530151367 8.82421875 27.9228515625 8.82421875 C 28.596677780151367 8.82421875 29.203123092651367 8.6484375 29.7421875 8.296875 C 30.281248092651367 7.9453125 30.550779342651367 7.4033203125 30.55078125 6.6708984375 C 30.550779342651367 6.0908203125 30.354490280151367 5.6103515625 29.9619140625 5.2294921875 C 29.569334030151367 4.8486328125 29.062498092651367 4.658203125 28.44140625 4.658203125 C 27.826169967651367 4.658203125 27.313474655151367 4.8515625 26.9033203125 5.23828125 C 26.493162155151367 5.625 26.229490280151367 6.205078125 26.1123046875 6.978515625 L 24.5302734375 6.697265625 C 24.7236328125 5.63671875 25.1630859375 4.81494140625 25.8486328125 4.23193359375 C 26.5341796875 3.64892578125 27.38671875 3.357421875 28.40625 3.357421875 C 29.109375 3.357421875 29.756834030151367 3.50830078125 30.3486328125 3.81005859375 C 30.940427780151367 4.11181640625 31.393064498901367 4.5234375 31.70654296875 5.044921875 C 32.020015716552734 5.56640625 32.1767578125 6.1201171875 32.1767578125 6.7060546875 C 32.1767578125 7.2626953125 32.02734375 7.76953125 31.728515625 8.2265625 C 31.4296875 8.68359375 30.987302780151367 9.046875 30.4013671875 9.31640625 C 31.163084030151367 9.4921875 31.7548828125 9.85693359375 32.1767578125 10.41064453125 C 32.5986328125 10.96435546875 32.8095703125 11.6572265625 32.8095703125 12.4892578125 C 32.8095703125 13.6142578125 32.399410247802734 14.56787109375 31.5791015625 15.35009765625 C 30.758787155151367 16.132322311401367 29.721677780151367 16.5234375 28.4677734375 16.5234375 C 27.336912155151367 16.5234375 26.39794921875 16.186521530151367 25.65087890625 15.5126953125 C 24.90380859375 14.8388671875 24.4775390625 13.9658203125 24.3720703125 12.8935546875 Z M 39.744140625 16.294921875 L 39.744140625 13.2099609375 L 34.154296875 13.2099609375 L 34.154296875 11.759765625 L 40.0341796875 3.41015625 L 41.326171875 3.41015625 L 41.326171875 11.759765625 L 43.06640625 11.759765625 L 43.06640625 13.2099609375 L 41.326171875 13.2099609375 L 41.326171875 16.294921875 Z M 39.744140625 11.759765625 L 39.744140625 5.9501953125 L 35.7099609375 11.759765625 Z M 44.982421875 12.919921875 L 46.6435546875 12.779296875 C 46.7666015625 13.587890625 47.05224609375 14.19580078125 47.50048828125 14.60302734375 C 47.94873046875 15.01025390625 48.4892578125 15.2138671875 49.1220703125 15.2138671875 C 49.883785247802734 15.2138671875 50.5283203125 14.9267578125 51.0556640625 14.3525390625 C 51.5830078125 13.7783203125 51.8466796875 13.0166015625 51.8466796875 12.0673828125 C 51.8466796875 11.1650390625 51.593257904052734 10.453125 51.08642578125 9.931640625 C 50.579586029052734 9.41015625 49.916011810302734 9.1494140625 49.095703125 9.1494140625 C 48.5859375 9.1494140625 48.125972747802734 9.26513671875 47.7158203125 9.49658203125 C 47.305660247802734 9.72802734375 46.983394622802734 10.0283203125 46.7490234375 10.3974609375 L 45.263671875 10.2041015625 L 46.51171875 3.5859375 L 52.9189453125 3.5859375 L 52.9189453125 5.09765625 L 47.77734375 5.09765625 L 47.0830078125 8.560546875 C 47.856441497802734 8.021484375 48.667964935302734 7.751953125 49.517578125 7.751953125 C 50.642578125 7.751953125 51.591796875 8.1416015625 52.365234375 8.9208984375 C 53.138671875 9.7001953125 53.525390625 10.7021484375 53.525390625 11.9267578125 C 53.525390625 13.0927734375 53.185543060302734 14.1005859375 52.505859375 14.9501953125 C 51.6796875 15.993163108825684 50.551753997802734 16.5146484375 49.1220703125 16.5146484375 C 47.950191497802734 16.5146484375 46.993648529052734 16.186521530151367 46.25244140625 15.5302734375 C 45.511226654052734 14.8740234375 45.087890625 14.00390625 44.982421875 12.919921875 Z M 63.5009765625 6.5654296875 L 61.927734375 6.6884765625 C 61.787105560302734 6.0673828125 61.587886810302734 5.6162109375 61.330078125 5.3349609375 C 60.902339935302734 4.8837890625 60.374996185302734 4.658203125 59.748046875 4.658203125 C 59.244136810302734 4.658203125 58.801753997802734 4.798828125 58.4208984375 5.080078125 C 57.922847747802734 5.443359375 57.530269622802734 5.9736328125 57.2431640625 6.6708984375 C 56.956050872802734 7.3681640625 56.806636810302734 8.361328125 56.794921875 9.650390625 C 57.175777435302734 9.0703125 57.641597747802734 8.6396484375 58.1923828125 8.3583984375 C 58.743160247802734 8.0771484375 59.320308685302734 7.9365234375 59.923828125 7.9365234375 C 60.978511810302734 7.9365234375 61.876461029052734 8.32470703125 62.61767578125 9.10107421875 C 63.358882904052734 9.87744140625 63.7294921875 10.880859375 63.7294921875 12.111328125 C 63.7294921875 12.919921875 63.555171966552734 13.67138671875 63.20654296875 14.36572265625 C 62.857906341552734 15.06005859375 62.378902435302734 15.591796875 61.76953125 15.9609375 C 61.160152435302734 16.330076217651367 60.46875 16.5146484375 59.6953125 16.5146484375 C 58.376953125 16.5146484375 57.301753997802734 16.029783248901367 56.4697265625 15.06005859375 C 55.637691497802734 14.09033203125 55.2216796875 12.4921875 55.2216796875 10.265625 C 55.2216796875 7.775390625 55.681636810302734 5.96484375 56.6015625 4.833984375 C 57.404293060302734 3.849609375 58.485347747802734 3.357421875 59.8447265625 3.357421875 C 60.858394622802734 3.357421875 61.688961029052734 3.6416015625 62.33642578125 4.2099609375 C 62.983882904052734 4.7783203125 63.372066497802734 5.5634765625 63.5009765625 6.5654296875 Z M 57.041015625 12.1201171875 C 57.041015625 12.6650390625 57.156734466552734 13.1865234375 57.38818359375 13.6845703125 C 57.619625091552734 14.1826171875 57.943355560302734 14.56201171875 58.359375 14.82275390625 C 58.775386810302734 15.08349609375 59.2119140625 15.2138671875 59.6689453125 15.2138671875 C 60.3369140625 15.2138671875 60.911128997802734 14.9443359375 61.3916015625 14.4052734375 C 61.872066497802734 13.8662109375 62.112300872802734 13.1337890625 62.1123046875 12.2080078125 C 62.112300872802734 11.3173828125 61.874996185302734 10.61572265625 61.400390625 10.10302734375 C 60.92578125 9.59033203125 60.328125 9.333984375 59.607421875 9.333984375 C 58.892574310302734 9.333984375 58.286128997802734 9.59033203125 57.7880859375 10.10302734375 C 57.290035247802734 10.61572265625 57.041015625 11.2880859375 57.041015625 12.1201171875 Z M 65.70703125 5.09765625 L 65.70703125 3.5771484375 L 74.0478515625 3.5771484375 L 74.0478515625 4.8076171875 C 73.227531433105469 5.6806640625 72.414543151855469 6.8408203125 71.60888671875 8.2880859375 C 70.80322265625 9.7353515625 70.1806640625 11.2236328125 69.7412109375 12.7529296875 C 69.4248046875 13.8310546875 69.22265625 15.01171875 69.134765625 16.294921875 L 67.5087890625 16.294921875 C 67.5263671875 15.28125 67.725578308105469 14.056639671325684 68.1064453125 12.62109375 C 68.487297058105469 11.185546875 69.033683776855469 9.80126953125 69.74560546875 8.46826171875 C 70.45751953125 7.13525390625 71.214836120605469 6.01171875 72.017578125 5.09765625 Z M 78.345703125 9.3076171875 C 77.689445495605469 9.0673828125 77.203125 8.724609375 76.88671875 8.279296875 C 76.5703125 7.833984375 76.412109375 7.30078125 76.412109375 6.6796875 C 76.412109375 5.7421875 76.7490234375 4.9541015625 77.4228515625 4.3154296875 C 78.096672058105469 3.6767578125 78.993156433105469 3.357421875 80.1123046875 3.357421875 C 81.2373046875 3.357421875 82.142578125 3.68408203125 82.828125 4.33740234375 C 83.513671875 4.99072265625 83.8564453125 5.7861328125 83.8564453125 6.7236328125 C 83.8564453125 7.3212890625 83.699699401855469 7.84130859375 83.38623046875 8.28369140625 C 83.072746276855469 8.72607421875 82.596672058105469 9.0673828125 81.9580078125 9.3076171875 C 82.7490234375 9.5654296875 83.35107421875 9.9814453125 83.76416015625 10.5556640625 C 84.17724609375 11.1298828125 84.3837890625 11.8154296875 84.3837890625 12.6123046875 C 84.3837890625 13.7138671875 83.994132995605469 14.6396484375 83.21484375 15.3896484375 C 82.435539245605469 16.139646530151367 81.410148620605469 16.5146484375 80.138671875 16.5146484375 C 78.867179870605469 16.5146484375 77.841789245605469 16.138181686401367 77.0625 15.38525390625 C 76.283195495605469 14.63232421875 75.8935546875 13.693359375 75.8935546875 12.568359375 C 75.8935546875 11.73046875 76.105949401855469 11.02880859375 76.53076171875 10.46337890625 C 76.955558776855469 9.89794921875 77.560539245605469 9.5126953125 78.345703125 9.3076171875 Z M 78.029296875 6.626953125 C 78.029296875 7.236328125 78.225578308105469 7.734375 78.6181640625 8.12109375 C 79.010734558105469 8.5078125 79.520500183105469 8.701171875 80.1474609375 8.701171875 C 80.756828308105469 8.701171875 81.256340026855469 8.50927734375 81.64599609375 8.12548828125 C 82.035636901855469 7.74169921875 82.230461120605469 7.271484375 82.23046875 6.71484375 C 82.230461120605469 6.134765625 82.029777526855469 5.64697265625 81.62841796875 5.25146484375 C 81.227043151855469 4.85595703125 80.7275390625 4.658203125 80.1298828125 4.658203125 C 79.526359558105469 4.658203125 79.025382995605469 4.8515625 78.626953125 5.23828125 C 78.228507995605469 5.625 78.029296875 6.087890625 78.029296875 6.626953125 Z M 77.51953125 12.5771484375 C 77.51953125 13.0283203125 77.626457214355469 13.46484375 77.84033203125 13.88671875 C 78.054191589355469 14.30859375 78.3720703125 14.63525390625 78.7939453125 14.86669921875 C 79.2158203125 15.09814453125 79.669914245605469 15.2138671875 80.15625 15.2138671875 C 80.912109375 15.2138671875 81.5361328125 14.970703125 82.0283203125 14.484375 C 82.5205078125 13.998046875 82.7666015625 13.3798828125 82.7666015625 12.6298828125 C 82.7666015625 11.8681640625 82.513175964355469 11.23828125 82.00634765625 10.740234375 C 81.499504089355469 10.2421875 80.865226745605469 9.9931640625 80.103515625 9.9931640625 C 79.359367370605469 9.9931640625 78.742668151855469 10.2392578125 78.25341796875 10.7314453125 C 77.764152526855469 11.2236328125 77.51953125 11.8388671875 77.51953125 12.5771484375 Z " fill="#000000" shape-rendering="geometricPrecision" />
    </g>
  </g>
</svg>